:FULLY-SPECIFIED
:FORCE-ALL-JOINTS-BE-3DOF
:DEGREES
1427
root -1.9455 13.7001 12.6879 6.79098 27.0902 6.63316
lfemur 25.623 -0.0864909 -10.3889
ltibia 16.5706 -0 0
lfoot -15.4375 34.5017 0.000143693
ltoes -23.9772 0 0
rfemur -65.8357 -21.5441 12.3623
rtibia 74.0853 -0 0
rfoot -9.11857 10.5547 -0.000602191
rtoes 4.96717 -0 0
lowerback 10.2695 2.01357 -10.3385
upperback -3.33279 1.17173 -0.959418
thorax -9.63297 1.15369 4.56279
lowerneck 0.00030436 -11.6626 -10.4761
upperneck 5.93266 -16.0375 9.70563
head 3.39498 -7.97217 3.89279
lclavicle 0 0 0
lhumerus -73.8259 -18.2078 104.441
lradius 100.894 -0 0
lwrist 58.3998 0 0
lhand -9.27502 41.8893 -0.000160345
lfingers 0 0 0
lthumb 16.6817 71.1922 -0.000154887
rclavicle 0 0 0
rhumerus 62.9759 -13.9173 -27.8024
rradius 82.273 -0 0
rwrist 26.6853 0 0
rhand -43.6453 -31.1603 9.74477e-05
rfingers 0 0 0
rthumb -16.4797 -60.4804 8.56039e-05
1428
root -1.94409 13.6985 12.687 6.79845 27.0922 6.64118
lfemur 25.6089 -0.0872759 -10.3777
ltibia 16.593 -0 0
lfoot -15.4255 34.508 0.000118099
ltoes -23.904 0 0
rfemur -65.8651 -21.5696 12.3802
rtibia 74.1186 -0 0
rfoot -9.13352 10.5755 -0.000494933
rtoes 5.0165 -0 0
lowerback 10.2627 2.00789 -10.3495
upperback -3.34035 1.16318 -0.957249
thorax -9.63662 1.15076 4.57295
lowerneck -0.00707768 -11.6582 -10.4674
upperneck 5.93958 -16.0304 9.69074
head 3.39558 -7.96859 3.88712
lclavicle 0 0 0
lhumerus -73.8392 -18.2248 104.462
lradius 100.883 -0 0
lwrist 58.4208 0 0
lhand -9.27335 41.8398 -0.000131785
lfingers 0 0 0
lthumb 16.6833 71.1426 -0.000127299
rclavicle 0 0 0
rhumerus 62.9613 -13.9112 -27.7976
rradius 82.2829 -0 0
rwrist 26.6526 0 0
rhand -43.6379 -31.1535 8.00911e-05
rfingers 0 0 0
rthumb -16.4725 -60.4742 7.03569e-05
1429
root -1.9428 13.6971 12.6862 6.80522 27.094 6.64846
lfemur 25.5961 -0.0879849 -10.3676
ltibia 16.6132 -0 0
lfoot -15.4147 34.5136 9.37879e-05
ltoes -23.8376 0 0
rfemur -65.8918 -21.5927 12.3964
rtibia 74.1487 -0 0
rfoot -9.14708 10.5944 -0.000393049
rtoes 5.0612 -0 0
lowerback 10.2567 2.00274 -10.3595
upperback -3.34721 1.15544 -0.955283
thorax -9.63994 1.14811 4.58215
lowerneck -0.0137661 -11.6543 -10.4595
upperneck 5.94584 -16.024 9.67724
head 3.39613 -7.96535 3.88198
lclavicle 0 0 0
lhumerus -73.8512 -18.2402 104.481
lradius 100.873 -0 0
lwrist 58.4398 0 0
lhand -9.27183 41.7951 -0.000104657
lfingers 0 0 0
lthumb 16.6848 71.0977 -0.000101094
rclavicle 0 0 0
rhumerus 62.948 -13.9056 -27.7934
rradius 82.2919 -0 0
rwrist 26.623 0 0
rhand -43.6312 -31.1474 6.3604e-05
rfingers 0 0 0
rthumb -16.4661 -60.4686 5.58736e-05
1430
root -1.94164 13.6958 12.6854 6.81125 27.0957 6.65493
lfemur 25.5847 -0.0886136 -10.3587
ltibia 16.6313 -0 0
lfoot -15.4051 34.5186 7.12704e-05
ltoes -23.7786 0 0
rfemur -65.9156 -21.6133 12.4108
rtibia 74.1756 -0 0
rfoot -9.15913 10.6111 -0.000298682
rtoes 5.10095 -0 0
lowerback 10.2512 1.99816 -10.3684
upperback -3.35331 1.14855 -0.953534
thorax -9.64288 1.14575 4.59033
lowerneck -0.0197144 -11.6507 -10.4525
upperneck 5.95142 -16.0183 9.66524
head 3.39661 -7.96247 3.87742
lclavicle 0 0 0
lhumerus -73.8619 -18.254 104.497
lradius 100.864 -0 0
lwrist 58.4568 0 0
lhand -9.27047 41.7552 -7.95294e-05
lfingers 0 0 0
lthumb 16.6861 71.0577 -7.68222e-05
rclavicle 0 0 0
rhumerus 62.9362 -13.9006 -27.7896
rradius 82.2999 -0 0
rwrist 26.5967 0 0
rhand -43.6252 -31.1419 4.83333e-05
rfingers 0 0 0
rthumb -16.4603 -60.4636 4.24589e-05
1431
root -1.94062 13.6948 12.6847 6.81647 27.0971 6.66054
lfemur 25.5749 -0.0891577 -10.3509
ltibia 16.6469 -0 0
lfoot -15.3967 34.523 5.10476e-05
ltoes -23.7274 0 0
rfemur -65.9362 -21.6311 12.4233
rtibia 74.1989 -0 0
rfoot -9.16959 10.6257 -0.000213931
rtoes 5.13545 -0 0
lowerback 10.2466 1.99419 -10.3761
upperback -3.3586 1.14257 -0.952016
thorax -9.64544 1.1437 4.59744
lowerneck -0.0248757 -11.6477 -10.4463
upperneck 5.95625 -16.0133 9.65483
head 3.39703 -7.95997 3.87345
lclavicle 0 0 0
lhumerus -73.8712 -18.2659 104.512
lradius 100.856 -0 0
lwrist 58.4715 0 0
lhand -9.2693 41.7206 -5.6963e-05
lfingers 0 0 0
lthumb 16.6872 71.0231 -5.50239e-05
rclavicle 0 0 0
rhumerus 62.926 -13.8963 -27.7863
rradius 82.3069 -0 0
rwrist 26.5738 0 0
rhand -43.62 -31.1371 3.46188e-05
rfingers 0 0 0
rthumb -16.4553 -60.4592 3.04113e-05
1432
root -1.93977 13.6939 12.684 6.82086 27.0983 6.66525
lfemur 25.5666 -0.089613 -10.3443
ltibia 16.66 -0 0
lfoot -15.3897 34.5266 3.36007e-05
ltoes -23.6844 0 0
rfemur -65.9535 -21.646 12.4339
rtibia 74.2184 -0 0
rfoot -9.17836 10.6379 -0.000140815
rtoes 5.16438 -0 0
lowerback 10.2426 1.99086 -10.3826
upperback -3.36303 1.13756 -0.950742
thorax -9.64759 1.14198 4.60339
lowerneck -0.0292034 -11.6451 -10.4412
upperneck 5.9603 -16.0091 9.64609
head 3.39738 -7.95788 3.87013
lclavicle 0 0 0
lhumerus -73.879 -18.2759 104.524
lradius 100.849 -0 0
lwrist 58.4838 0 0
lhand -9.26832 41.6917 -3.74943e-05
lfingers 0 0 0
lthumb 16.6881 70.994 -3.6218e-05
rclavicle 0 0 0
rhumerus 62.9174 -13.8927 -27.7835
rradius 82.3127 -0 0
rwrist 26.5546 0 0
rhand -43.6157 -31.1331 2.27869e-05
rfingers 0 0 0
rthumb -16.4512 -60.4556 2.00174e-05
1433
root -1.93908 13.6932 12.6835 6.82435 27.0992 6.669
lfemur 25.56 -0.089975 -10.3391
ltibia 16.6705 -0 0
lfoot -15.3841 34.5295 1.93828e-05
ltoes -23.6502 0 0
rfemur -65.9673 -21.6579 12.4422
rtibia 74.234 -0 0
rfoot -9.18535 10.6476 -8.12297e-05
rtoes 5.18743 -0 0
lowerback 10.2395 1.9882 -10.3877
upperback -3.36657 1.13357 -0.949727
thorax -9.64929 1.14061 4.60814
lowerneck -0.0326507 -11.643 -10.4371
upperneck 5.96353 -16.0058 9.63914
head 3.39767 -7.95621 3.86748
lclavicle 0 0 0
lhumerus -73.8852 -18.2838 104.534
lradius 100.844 -0 0
lwrist 58.4936 0 0
lhand -9.26753 41.6686 -2.16288e-05
lfingers 0 0 0
lthumb 16.6889 70.9709 -2.08925e-05
rclavicle 0 0 0
rhumerus 62.9105 -13.8898 -27.7813
rradius 82.3173 -0 0
rwrist 26.5394 0 0
rhand -43.6122 -31.1299 1.31448e-05
rfingers 0 0 0
rthumb -16.4478 -60.4527 1.15472e-05
